# xmcd
# Copyright (c) 1998 CDDB Inc.
#
# Track frame offsets:
#	150
#	15684
#	33392
#	50371
#	72814
#	83466
#	103965
#	116017
#	135558
#	152738
#	181929
#	201431
#
# Disc length: 2925 seconds
#
# Revision: 1
# Processed by: cddbd v1.4PL0 Copyright (c) Steve Scherf et al.
# Submitted via: audiograbber 1.70
#
DISCID=9c0b6b0c
DTITLE=Intercooler - Truth or Consequences
DYEAR=1900
DGENRE=
TTITLE0=Crying Everyday
TTITLE1=Good Things and Bad Things
TTITLE2=Some Kind of Game You Play
TTITLE3=Truth or Consequences
TTITLE4=Nowhere Is a Place for Me
TTITLE5=I'm as Lonesome as Can Be
TTITLE6=Sweet, Loveable and Unoffending
TTITLE7=Unbreak My Heart
TTITLE8=Love in The Movies
TTITLE9=A Country Song is Just a Lie
TTITLE10=Long White Lines
TTITLE11=Party is Over
EXTD=
EXTT0=
EXTT1=
EXTT2=
EXTT3=
EXTT4=
EXTT5=
EXTT6=
EXTT7=
EXTT8=
EXTT9=
EXTT10=
EXTT11=
PLAYORDER=
